# xmcd
#
# Track frame offsets: 
#        150
#        22745
#        32695
#        64292
#        76227
#        90857
#        101445
#        113340
#        131047
#        142235
#
# Disc length: 2183 seconds
#
# Revision: 0
# Processed by: cddbd v1.5.2PL0 Copyright (c) Steve Scherf et al.
# Submitted via: ExactAudioCopy v0.99pb5
#
DISCID=7308850a
DTITLE=Various Artist - Masters Of The Millenium, Blues
DYEAR=1900
DGENRE=Blues
TTITLE0=The Thrill Is Gone
TTITLE1=Hey Bo Diddley
TTITLE2=Cannonball Blues
TTITLE3=Cold-Hearted Woman
TTITLE4=Blues Is My Middle Name
TTITLE5=Ain't Got No Home
TTITLE6=Payin' The Cost To Be The Boss
TTITLE7=Mama Talk To Your Daughter
TTITLE8=Bad Bad Whiskey
TTITLE9=Roy's Groove
EXTD=
EXTT0=
EXTT1=
EXTT2=
EXTT3=
EXTT4=
EXTT5=
EXTT6=
EXTT7=
EXTT8=
EXTT9=
PLAYORDER=
